# xmcd CD database file
#
# Track frame offsets:
#	150
#	48443
#	78195
#	109183
#	137760
#	162410
#	221658
#
# Disc length: 3070 seconds
#
# Revision: 0
# Processed by: cddbd v1.5.2PL0 Copyright (c) Steve Scherf et al.
# Submitted via: CDex 1.70beta2
#
DISCID=5c0bfc07
DTITLE=Duke Jordan Trio - Tivoli Two
DYEAR=1900
DGENRE=Jazz
TTITLE0=No Problem
TTITLE1=How Deep Is The Ocean
TTITLE2=All The Things You Are
TTITLE3=Jealous Blues
TTITLE4=I Cover The Waterfront
TTITLE5=A Night In Tunisia
TTITLE6=Jordu
EXTD=
EXTT0=
EXTT1=
EXTT2=
EXTT3=
EXTT4=
EXTT5=
EXTT6=
PLAYORDER=
